<svg xmlns="http://www.w3.org/2000/svg" xmlns:xlink="http://www.w3.org/1999/xlink" viewBox="0 0 143 38" class="kaios-logo">
    <g fill="none" fill-rule="evenodd">
        <path fill="#80858C" d="M67.5 12c-2.485 0-4.5 1.938-4.5 4.33v17.34c0 2.392 2.015 4.33 4.5 4.33s4.5-1.938 4.5-4.33V16.33c0-2.392-2.015-4.33-4.5-4.33"></path>
        <path fill="#80858C" d="M4.462.121C1.998.121 0 2.09 0 4.518v29.086C0 36.032 1.998 38 4.462 38c2.465 0 4.463-1.968 4.463-4.396V4.518C8.925 2.09 6.927.12 4.462.12" mask="url(#b)"></path>
        <path fill="#80858C" d="M18.858 13.822c-1.369-1.933-4.062-2.402-6.016-1.05a4.24 4.24 0 0 0-1.06 5.95l12.36 17.456c1.368 1.933 4.062 2.402 6.016 1.05a4.241 4.241 0 0 0 1.06-5.95l-12.36-17.456zM23.5 12c3.037 0 5.5-2.686 5.5-6s-2.463-6-5.5-6S18 2.686 18 6s2.463 6 5.5 6"></path>
        <g transform="translate(33 12)">
            <path fill="#80858C" d="M13.138 18.463c-2.97 0-5.388-2.446-5.388-5.452 0-3.007 2.417-5.453 5.388-5.453 2.97 0 5.388 2.446 5.388 5.453 0 3.006-2.417 5.452-5.388 5.452m0-18.442C6.05.02.303 5.836.303 13.01.303 20.184 6.05 26 13.138 26c2.209 0 4.287-.566 6.102-1.56A3.69 3.69 0 0 0 22.246 26c2.05 0 3.712-1.683 3.712-3.758v-8.65c.009-.193.015-.387.015-.582 0-7.175-5.747-12.99-12.835-12.99"></path>
        </g>
        <path fill="#80858C" d="M93.5 29.77c-5.783 0-10.487-4.831-10.487-10.77 0-5.939 4.704-10.77 10.487-10.77S103.987 13.06 103.987 19c0 5.939-4.704 10.77-10.487 10.77M93.5 0C83.283 0 75 8.507 75 19s8.283 19 18.5 19S112 29.493 112 19 103.717 0 93.5 0M131.44 14.387h-5.107c-1.63 0-2.957-1.345-2.957-2.998 0-1.805 1.65-2.88 3.279-3.01 2.006-.16 7.502-.045 9.45.012 2.231.082 4.147-1.737 4.212-4.027.066-2.291-1.713-4.201-3.973-4.268-.76-.023-7.524-.21-10.332.01-6.17.492-10.824 5.342-10.824 11.283 0 6.229 5 11.296 11.145 11.296h5.107c1.828 0 3.372 1.6 3.372 3.493 0 2.173-1.85 3.288-3.683 3.43-2.353.18-9.411.054-11.931-.012-2.262-.055-4.14 1.754-4.197 4.044-.056 2.291 1.73 4.195 3.99 4.253.62.015 4.352.107 7.8.107 1.949 0 3.806-.03 4.959-.118 6.519-.502 11.25-5.424 11.25-11.704 0-6.502-5.186-11.791-11.56-11.791"></path>
    </g>
</svg>